<?xml version="1.0" encoding="utf-8"?>
<svg version="1.1" xmlns="http://www.w3.org/2000/svg" xmlns:xlink="http://www.w3.org/1999/xlink" x="0px" y="0px"
	 viewBox="0 0 213.3 54.9" style="enable-background:new 0 0 213.3 54.9;" xml:space="preserve">
<path class="st0" d="M116 458 c-23 -33 -23 -383 0 -416 15 -22 20 -22 219 -22 199 0 204
0 219 22 23 33 23 383 0 416 -15 22 -20 22 -219 22 -199 0 -204 0 -219 -22z
m169 -48 c8 0 15 -5 15 -11 0 -8 18 -10 59 -5 57 7 58 6 70 -22 7 -16 23 -35
36 -42 13 -7 31 -33 40 -58 17 -42 17 -48 1 -97 -9 -28 -16 -66 -16 -82 0 -31
-14 -43 -50 -43 -29 0 -60 39 -60 75 0 42 -91 133 -141 141 -32 6 -35 8 -31
38 3 26 -2 38 -26 57 l-29 25 21 26 c27 33 56 39 79 16 10 -10 24 -18 32 -18z"/>
<path d="M640 305 l0 -105 110 0 c103 0 110 1 110 20 0 18 -7 20 -85 20 -78 0
-85 2 -85 20 0 18 7 20 85 20 84 0 85 0 85 25 0 25 -1 25 -85 25 -69 0 -85 3
-85 15 0 12 16 15 85 15 84 0 85 0 85 25 l0 25 -110 0 -110 0 0 -105z"/>
<path d="M900 305 l0 -105 103 0 c95 0 105 2 124 23 28 30 37 79 23 122 -18
55 -41 65 -152 65 l-98 0 0 -105z m188 43 c17 -17 15 -73 -2 -87 -9 -7 -38
-11 -73 -9 l-58 3 -3 39 c-5 60 0 66 66 66 32 0 63 -5 70 -12z"/>
<path d="M1190 305 l0 -105 110 0 c103 0 110 1 110 20 0 18 -7 20 -85 20 -78
0 -85 2 -85 20 0 18 7 20 85 20 84 0 85 0 85 25 0 25 -1 25 -85 25 -69 0 -85
3 -85 15 0 12 16 15 85 15 84 0 85 0 85 25 l0 25 -110 0 -110 0 0 -105z"/>
<path d="M1450 305 l0 -105 100 0 c93 0 100 1 100 20 0 17 -8 19 -67 22 l-68
3 -3 83 -3 82 -29 0 -30 0 0 -105z"/>
<path d="M1702 398 c-8 -8 -12 -46 -12 -105 0 -93 0 -93 25 -93 24 0 25 2 25
75 l0 75 70 0 c40 0 70 -4 70 -10 0 -6 -27 -10 -60 -10 -57 0 -60 -1 -60 -25
0 -24 3 -25 60 -25 l60 0 0 -40 c0 -36 3 -40 25 -40 25 0 25 0 25 93 0 59 -4
97 -12 105 -16 16 -200 16 -216 0z"/>
<path d="M1970 391 c-5 -11 -10 -58 -10 -105 0 -85 0 -86 25 -86 24 0 25 2 25
75 l0 75 75 0 c43 0 75 -4 75 -10 0 -6 -28 -10 -65 -10 -62 0 -65 -1 -65 -25
0 -23 4 -24 63 -27 l62 -3 3 -37 c3 -30 7 -38 22 -38 18 0 19 8 19 93 -1 50
-6 98 -11 105 -7 8 -42 12 -109 12 -87 0 -99 -2 -109 -19z"/>
<path d="M651 133 c-1 -27 3 -33 19 -33 16 0 20 6 19 33 0 17 -3 25 -6 17 -14
-43 -16 -44 -23 -15 l-8 30 -1 -32z"/>
<path d="M1742 130 c0 -19 2 -27 5 -17 2 9 2 25 0 35 -3 9 -5 1 -5 -18z"/>
<path d="M711 118 c0 -22 1 -22 8 -3 l8 20 5 -20 c5 -18 6 -18 7 3 1 13 -5 22
-14 22 -9 0 -15 -9 -14 -22z"/>
<path d="M755 130 c-8 -14 3 -30 21 -30 8 0 14 9 14 20 0 21 -24 28 -35 10z"/>
<path d="M832 123 c2 -9 10 -18 18 -20 13 -4 13 -3 0 6 -13 9 -12 11 3 11 10
0 15 5 12 10 -10 17 -37 11 -33 -7z"/>
<path d="M881 118 c0 -22 1 -22 8 -3 l8 20 5 -20 c5 -16 6 -17 7 -2 0 9 5 17
10 17 5 0 12 -8 14 -17 4 -14 5 -12 6 5 1 18 -4 22 -29 22 -25 0 -30 -4 -29
-22z"/>
<path d="M950 116 c0 -19 4 -23 20 -19 11 3 20 14 20 24 0 12 -7 19 -20 19
-14 0 -20 -7 -20 -24z m30 4 c0 -5 -4 -10 -10 -10 -5 0 -10 5 -10 10 0 6 5 10
10 10 6 0 10 -4 10 -10z"/>
<path d="M1001 117 c1 -17 2 -18 6 -4 6 21 19 22 27 2 3 -8 13 -15 23 -15 15
0 16 2 3 10 -10 6 -11 10 -2 10 6 0 12 4 12 9 0 5 -16 9 -35 9 -30 0 -35 -3
-34 -21z"/>
<path d="M1080 130 c0 -5 4 -10 9 -10 6 0 13 5 16 10 3 6 -1 10 -9 10 -9 0
-16 -4 -16 -10z"/>
<path d="M1120 120 c0 -13 7 -20 20 -20 13 0 20 7 20 20 0 13 -7 20 -20 20
-13 0 -20 -7 -20 -20z m30 0 c0 -5 -4 -10 -10 -10 -5 0 -10 5 -10 10 0 6 5 10
10 10 6 0 10 -4 10 -10z"/>
<path d="M1194 125 c4 -24 13 -27 19 -5 3 13 0 20 -8 20 -7 0 -12 -7 -11 -15z"/>
<path d="M1232 120 c0 -14 2 -19 5 -12 2 6 2 18 0 25 -3 6 -5 1 -5 -13z"/>
<path d="M1254 129 c-8 -14 11 -33 25 -25 6 4 11 14 11 22 0 16 -26 19 -36 3z
m26 -9 c0 -5 -2 -10 -4 -10 -3 0 -8 5 -11 10 -3 6 -1 10 4 10 6 0 11 -4 11
-10z"/>
<path d="M1302 115 c0 -16 2 -22 5 -12 2 9 2 23 0 30 -3 6 -5 -1 -5 -18z"/>
<path d="M1324 129 c-9 -15 12 -33 30 -26 9 4 16 13 16 22 0 17 -35 21 -46 4z"/>
<path d="M1381 116 c0 -21 1 -21 9 -1 7 17 9 17 9 3 1 -21 17 -24 24 -5 4 10
6 10 6 0 2 -22 41 -15 41 6 0 16 -7 19 -45 19 -39 -1 -45 -4 -44 -22z"/>
<path d="M1530 112 c0 -24 1 -24 25 -8 14 9 25 12 25 6 0 -5 9 -10 20 -10 13
0 20 7 20 19 0 16 -7 19 -45 19 -41 -1 -45 -3 -45 -26z"/>
<path d="M1630 120 c0 -11 2 -20 4 -20 2 0 6 9 9 20 3 11 1 20 -4 20 -5 0 -9
-9 -9 -20z"/>
<path d="M1662 123 c5 -26 38 -29 38 -4 0 15 -6 21 -21 21 -14 0 -19 -5 -17
-17z m28 -3 c0 -5 -4 -10 -10 -10 -5 0 -10 5 -10 10 0 6 5 10 10 10 6 0 10 -4
10 -10z"/>
<path d="M1762 123 c2 -10 10 -18 18 -18 22 0 18 29 -3 33 -14 3 -18 -1 -15
-15z m28 -3 c0 -5 -4 -10 -10 -10 -5 0 -10 5 -10 10 0 6 5 10 10 10 6 0 10 -4
10 -10z"/>
<path d="M1813 120 c2 -24 19 -21 23 3 1 9 -4 17 -11 17 -8 0 -13 -9 -12 -20z"/>
<path d="M1871 118 c1 -17 2 -19 6 -5 2 9 7 17 10 17 3 0 12 -8 19 -17 12 -17
13 -16 14 5 0 17 -6 22 -25 22 -20 0 -25 -5 -24 -22z"/>
<path d="M1930 120 c0 -15 5 -20 18 -18 9 2 17 10 17 18 0 8 -8 16 -17 18 -13
2 -18 -3 -18 -18z m30 6 c0 -3 -4 -8 -10 -11 -5 -3 -10 -1 -10 4 0 6 5 11 10
11 6 0 10 -2 10 -4z"/>
<path d="M1982 115 c0 -16 2 -22 5 -12 2 9 2 23 0 30 -3 6 -5 -1 -5 -18z"/>
<path d="M2000 120 c0 -13 7 -20 20 -20 13 0 20 7 20 20 0 13 -7 20 -20 20
-13 0 -20 -7 -20 -20z m30 0 c0 -5 -4 -10 -10 -10 -5 0 -10 5 -10 10 0 6 5 10
10 10 6 0 10 -4 10 -10z"/>
<path d="M2050 118 c1 -22 1 -22 12 -3 11 19 11 19 19 0 7 -19 8 -18 8 3 1 16
-5 22 -19 22 -14 0 -20 -7 -20 -22z"/>
<path d="M2104 129 c-8 -14 11 -33 25 -25 6 4 11 14 11 22 0 16 -26 19 -36 3z
m26 -9 c0 -5 -4 -10 -10 -10 -5 0 -10 5 -10 10 0 6 5 10 10 10 6 0 10 -4 10
-10z"/>
<path d="M2150 130 c0 -5 4 -10 9 -10 6 0 13 5 16 10 3 6 -1 10 -9 10 -9 0
-16 -4 -16 -10z"/>
<path d="M1090 110 c-13 -8 -12 -10 3 -10 9 0 17 5 17 10 0 12 -1 12 -20 0z"/>
<path d="M2160 110 c-13 -8 -12 -10 3 -10 9 0 17 5 17 10 0 12 -1 12 -20 0z"/>
</svg>
